<svg width="60" height="60" viewBox="0 0 60 60" fill="none" xmlns="http://www.w3.org/2000/svg">
<path d="M32.9583 48.7917C33.7639 47.9861 34.1667 47 34.1667 45.8333C34.1667 44.6667 33.7639 43.6806 32.9583 42.875C32.1528 42.0694 31.1667 41.6667 30 41.6667C28.8333 41.6667 27.8472 42.0694 27.0417 42.875C26.2361 43.6806 25.8333 44.6667 25.8333 45.8333C25.8333 47 26.2361 47.9861 27.0417 48.7917C27.8472 49.5972 28.8333 50 30 50C31.1667 50 32.1528 49.5972 32.9583 48.7917ZM27 37.1667H33.1667C33.1667 35.1667 33.3889 33.6944 33.8333 32.75C34.2778 31.8056 35.2222 30.6111 36.6667 29.1667C38.6111 27.2222 39.9861 25.5972 40.7917 24.2917C41.5972 22.9861 42 21.5 42 19.8333C42 16.8889 41 14.5139 39 12.7083C37 10.9028 34.3056 10 30.9167 10C27.8611 10 25.2639 10.75 23.125 12.25C20.9861 13.75 19.5 15.8333 18.6667 18.5L24.1667 20.6667C24.5556 19.1667 25.3333 17.9583 26.5 17.0417C27.6667 16.125 29.0278 15.6667 30.5833 15.6667C32.0833 15.6667 33.3333 16.0694 34.3333 16.875C35.3333 17.6806 35.8333 18.75 35.8333 20.0833C35.8333 21.0278 35.5278 22.0278 34.9167 23.0833C34.3056 24.1389 33.2778 25.3056 31.8333 26.5833C30 28.1944 28.7361 29.7361 28.0417 31.2083C27.3472 32.6806 27 34.6667 27 37.1667ZM6.66667 60C4.83333 60 3.26389 59.3472 1.95833 58.0417C0.652778 56.7361 0 55.1667 0 53.3333V6.66667C0 4.83333 0.652778 3.26389 1.95833 1.95833C3.26389 0.652778 4.83333 0 6.66667 0H53.3333C55.1667 0 56.7361 0.652778 58.0417 1.95833C59.3472 3.26389 60 4.83333 60 6.66667V53.3333C60 55.1667 59.3472 56.7361 58.0417 58.0417C56.7361 59.3472 55.1667 60 53.3333 60H6.66667ZM6.66667 53.3333H53.3333V6.66667H6.66667V53.3333Z" fill="#39FF14"/>
</svg>
