<svg width="60" height="60" viewBox="0 0 60 60" fill="none" xmlns="http://www.w3.org/2000/svg">
<path d="M27 60V53.3333H51V29.6667C51 23.1667 48.9625 17.6528 44.8875 13.125C40.8125 8.59722 35.85 6.33333 30 6.33333C24.15 6.33333 19.1875 8.59722 15.1125 13.125C11.0375 17.6528 9 23.1667 9 29.6667V50H6C4.35 50 2.9375 49.3472 1.7625 48.0417C0.5875 46.7361 0 45.1667 0 43.3333V36.6667C0 35.5 0.2625 34.4028 0.7875 33.375C1.3125 32.3472 2.05 31.5278 3 30.9167L3.225 26.5C3.625 22.7222 4.6125 19.2222 6.1875 16C7.7625 12.7778 9.7375 9.97222 12.1125 7.58333C14.4875 5.19444 17.2125 3.33333 20.2875 2C23.3625 0.666667 26.6 0 30 0C33.4 0 36.625 0.666667 39.675 2C42.725 3.33333 45.45 5.18056 47.85 7.54167C50.25 9.90278 52.225 12.6944 53.775 15.9167C55.325 19.1389 56.325 22.6389 56.775 26.4167L57 30.75C57.95 31.25 58.6875 32 59.2125 33C59.7375 34 60 35.0556 60 36.1667V43.8333C60 44.9444 59.7375 46 59.2125 47C58.6875 48 57.95 48.75 57 49.25V53.3333C57 55.1667 56.4125 56.7361 55.2375 58.0417C54.0625 59.3472 52.65 60 51 60H27ZM18.8625 35.7083C18.2875 35.0694 18 34.2778 18 33.3333C18 32.3889 18.2875 31.5972 18.8625 30.9583C19.4375 30.3194 20.15 30 21 30C21.85 30 22.5625 30.3194 23.1375 30.9583C23.7125 31.5972 24 32.3889 24 33.3333C24 34.2778 23.7125 35.0694 23.1375 35.7083C22.5625 36.3472 21.85 36.6667 21 36.6667C20.15 36.6667 19.4375 36.3472 18.8625 35.7083ZM36.8625 35.7083C36.2875 35.0694 36 34.2778 36 33.3333C36 32.3889 36.2875 31.5972 36.8625 30.9583C37.4375 30.3194 38.15 30 39 30C39.85 30 40.5625 30.3194 41.1375 30.9583C41.7125 31.5972 42 32.3889 42 33.3333C42 34.2778 41.7125 35.0694 41.1375 35.7083C40.5625 36.3472 39.85 36.6667 39 36.6667C38.15 36.6667 37.4375 36.3472 36.8625 35.7083ZM12.075 31.5C11.725 25.6111 13.325 20.5556 16.875 16.3333C20.425 12.1111 24.85 10 30.15 10C34.6 10 38.5125 11.5694 41.8875 14.7083C45.2625 17.8472 47.3 21.8611 48 26.75C43.45 26.6944 39.2625 25.3333 35.4375 22.6667C31.6125 20 28.675 16.3889 26.625 11.8333C25.825 16.2778 24.1375 20.2361 21.5625 23.7083C18.9875 27.1806 15.825 29.7778 12.075 31.5Z" fill="#39FF14"/>
</svg>
