<svg width="35" height="35" viewBox="0 0 35 35" fill="none" xmlns="http://www.w3.org/2000/svg">
<path d="M25.2778 35V28.8144H19.4444V24.6907H25.2778V18.5052H29.1667V24.6907H35V28.8144H29.1667V35H25.2778ZM0 28.866V24.7423H3.88889V28.866H0ZM7.77778 28.866V24.7423H15.7014C15.6042 25.4639 15.5637 26.1512 15.5799 26.8041C15.5961 27.457 15.6528 28.1443 15.75 28.866H7.77778ZM0 20.6186V16.4948H3.88889V20.6186H0ZM7.77778 20.6186V16.4948H20.7083C19.963 17.0447 19.2905 17.6632 18.691 18.3505C18.0914 19.0378 17.5648 19.7938 17.1111 20.6186H7.77778ZM0 12.3711V8.24742H3.88889V12.3711H0ZM7.77778 12.3711V8.24742H31.1111V12.3711H7.77778ZM0 4.12371V0H3.88889V4.12371H0ZM7.77778 4.12371V0H31.1111V4.12371H7.77778Z" fill="#00FF7F"/>
</svg>
