<svg width="50" height="50" viewBox="0 0 50 50" fill="none" xmlns="http://www.w3.org/2000/svg">
<path d="M25 50C21.5417 50 18.2917 49.3438 15.25 48.0312C12.2083 46.7188 9.5625 44.9375 7.3125 42.6875C5.0625 40.4375 3.28125 37.7917 1.96875 34.75C0.65625 31.7083 0 28.4583 0 25C0 21.5417 0.65625 18.2917 1.96875 15.25C3.28125 12.2083 5.0625 9.5625 7.3125 7.3125C9.5625 5.0625 12.2083 3.28125 15.25 1.96875C18.2917 0.65625 21.5417 0 25 0C28.4583 0 31.7083 0.65625 34.75 1.96875C37.7917 3.28125 40.4375 5.0625 42.6875 7.3125C44.9375 9.5625 46.7188 12.2083 48.0312 15.25C49.3438 18.2917 50 21.5417 50 25C50 26.125 49.9375 27.2292 49.8125 28.3125C49.6875 29.3958 49.4792 30.4583 49.1875 31.5C48.6042 30.8333 47.9271 30.2708 47.1563 29.8125C46.3854 29.3542 45.5417 29.0417 44.625 28.875C44.75 28.25 44.8438 27.6146 44.9062 26.9688C44.9688 26.3229 45 25.6667 45 25C45 19.4167 43.0625 14.6875 39.1875 10.8125C35.3125 6.9375 30.5833 5 25 5C19.4167 5 14.6875 6.9375 10.8125 10.8125C6.9375 14.6875 5 19.4167 5 25C5 30.5833 6.9375 35.3125 10.8125 39.1875C14.6875 43.0625 19.4167 45 25 45C27.125 45 29.1562 44.6875 31.0938 44.0625C33.0312 43.4375 34.8125 42.5625 36.4375 41.4375C36.9375 42.1458 37.5521 42.7708 38.2812 43.3125C39.0104 43.8542 39.7917 44.2708 40.625 44.5625C38.5 46.2708 36.1146 47.6042 33.4688 48.5625C30.8229 49.5208 28 50 25 50ZM40.9063 39.0938C40.3021 38.4896 40 37.75 40 36.875C40 36 40.3021 35.2604 40.9063 34.6562C41.5104 34.0521 42.25 33.75 43.125 33.75C44 33.75 44.7396 34.0521 45.3438 34.6562C45.9479 35.2604 46.25 36 46.25 36.875C46.25 37.75 45.9479 38.4896 45.3438 39.0938C44.7396 39.6979 44 40 43.125 40C42.25 40 41.5104 39.6979 40.9063 39.0938ZM33.25 36.75L22.5 26V12.5H27.5V24L36.75 33.25L33.25 36.75Z" fill="#00FF7F"/>
</svg>
