<svg width="50" height="50" viewBox="0 0 50 50" fill="none" xmlns="http://www.w3.org/2000/svg">
<path d="M25 50C20.7576 50 16.8561 49.0341 13.2955 47.1023C9.73485 45.1705 6.81818 42.5947 4.54545 39.375V45.4545H0V31.8182H13.6364V36.3636H8.01136C9.82955 39.0909 12.2254 41.2879 15.1989 42.9545C18.1723 44.6212 21.4394 45.4545 25 45.4545C27.8409 45.4545 30.5019 44.9148 32.983 43.8352C35.464 42.7557 37.6231 41.2973 39.4602 39.4602C41.2973 37.6231 42.7557 35.464 43.8352 32.983C44.9148 30.5019 45.4545 27.8409 45.4545 25H50C50 28.447 49.3466 31.6856 48.0398 34.7159C46.733 37.7462 44.9432 40.3977 42.6705 42.6705C40.3977 44.9432 37.7462 46.733 34.7159 48.0398C31.6856 49.3466 28.447 50 25 50ZM22.9545 40.9091V37.9545C21.1742 37.5379 19.7254 36.7708 18.608 35.6534C17.4905 34.536 16.6667 33.0682 16.1364 31.25L19.8864 29.7727C20.3409 31.3258 21.0511 32.4905 22.017 33.267C22.983 34.0436 24.0909 34.4318 25.3409 34.4318C26.5909 34.4318 27.661 34.1383 28.5511 33.5511C29.4413 32.964 29.8864 32.0455 29.8864 30.7955C29.8864 29.697 29.4223 28.8068 28.4943 28.125C27.5663 27.4432 25.9091 26.6667 23.5227 25.7955C21.2879 25 19.6496 24.053 18.608 22.9545C17.5663 21.8561 17.0455 20.4167 17.0455 18.6364C17.0455 17.0833 17.5852 15.6723 18.6648 14.4034C19.7443 13.1345 21.2121 12.3106 23.0682 11.9318V9.09091H27.0455V11.9318C28.4091 12.0455 29.6496 12.5947 30.767 13.5795C31.8845 14.5644 32.6515 15.7197 33.0682 17.0455L29.4318 18.5227C29.1288 17.6515 28.6364 16.9223 27.9545 16.3352C27.2727 15.7481 26.3258 15.4545 25.1136 15.4545C23.7879 15.4545 22.7746 15.7386 22.0739 16.3068C21.3731 16.875 21.0227 17.6515 21.0227 18.6364C21.0227 19.6212 21.4583 20.3977 22.3295 20.9659C23.2008 21.5341 24.7727 22.197 27.0455 22.9545C29.7727 23.9394 31.5909 25.0947 32.5 26.4205C33.4091 27.7462 33.8636 29.2045 33.8636 30.7955C33.8636 31.8939 33.6742 32.8598 33.2955 33.6932C32.9167 34.5265 32.4148 35.2367 31.7898 35.8239C31.1648 36.411 30.4356 36.8845 29.6023 37.2443C28.7689 37.6042 27.8788 37.8788 26.9318 38.0682V40.9091H22.9545ZM0 25C0 21.553 0.653409 18.3144 1.96023 15.2841C3.26705 12.2538 5.05682 9.60227 7.32955 7.32955C9.60227 5.05682 12.2538 3.26705 15.2841 1.96023C18.3144 0.653409 21.553 0 25 0C29.2424 0 33.1439 0.965909 36.7045 2.89773C40.2652 4.82955 43.1818 7.4053 45.4545 10.625V4.54545H50V18.1818H36.3636V13.6364H41.9886C40.1705 10.9091 37.7746 8.71212 34.8011 7.04545C31.8277 5.37879 28.5606 4.54545 25 4.54545C22.1591 4.54545 19.4981 5.08523 17.017 6.16477C14.536 7.24432 12.3769 8.70265 10.5398 10.5398C8.70265 12.3769 7.24432 14.536 6.16477 17.017C5.08523 19.4981 4.54545 22.1591 4.54545 25H0Z" fill="#00FF7F"/>
</svg>
