<svg width="50" height="50" viewBox="0 0 50 50" fill="none" xmlns="http://www.w3.org/2000/svg">
<path d="M5.26316 50C3.81579 50 2.57675 49.456 1.54605 48.3681C0.515351 47.2801 0 45.9722 0 44.4444V5.55556C0 4.02778 0.515351 2.71991 1.54605 1.63194C2.57675 0.543981 3.81579 0 5.26316 0H42.1053C43.5526 0 44.7917 0.543981 45.8224 1.63194C46.8531 2.71991 47.3684 4.02778 47.3684 5.55556V12.5H42.1053V5.55556H5.26316V44.4444H42.1053V37.5H47.3684V44.4444C47.3684 45.9722 46.8531 47.2801 45.8224 48.3681C44.7917 49.456 43.5526 50 42.1053 50H5.26316ZM26.3158 38.8889C24.8684 38.8889 23.6294 38.3449 22.5987 37.2569C21.568 36.169 21.0526 34.8611 21.0526 33.3333V16.6667C21.0526 15.1389 21.568 13.831 22.5987 12.7431C23.6294 11.6551 24.8684 11.1111 26.3158 11.1111H44.7368C46.1842 11.1111 47.4232 11.6551 48.4539 12.7431C49.4846 13.831 50 15.1389 50 16.6667V33.3333C50 34.8611 49.4846 36.169 48.4539 37.2569C47.4232 38.3449 46.1842 38.8889 44.7368 38.8889H26.3158ZM44.7368 33.3333V16.6667H26.3158V33.3333H44.7368ZM37.0066 27.9514C37.7741 27.1412 38.1579 26.1574 38.1579 25C38.1579 23.8426 37.7741 22.8588 37.0066 22.0486C36.239 21.2384 35.307 20.8333 34.2105 20.8333C33.114 20.8333 32.182 21.2384 31.4145 22.0486C30.6469 22.8588 30.2632 23.8426 30.2632 25C30.2632 26.1574 30.6469 27.1412 31.4145 27.9514C32.182 28.7616 33.114 29.1667 34.2105 29.1667C35.307 29.1667 36.239 28.7616 37.0066 27.9514Z" fill="#00FF7F"/>
</svg>
