<svg width="50" height="50" viewBox="0 0 50 50" fill="none" xmlns="http://www.w3.org/2000/svg">
<path d="M11.4794 48.5312C10.4993 47.5521 10.0092 46.375 10.0092 45C10.0092 43.625 10.4993 42.4479 11.4794 41.4688C12.4594 40.4896 13.6376 40 15.0139 40C16.3901 40 17.5683 40.4896 18.5484 41.4688C19.5285 42.4479 20.0185 43.625 20.0185 45C20.0185 46.375 19.5285 47.5521 18.5484 48.5312C17.5683 49.5104 16.3901 50 15.0139 50C13.6376 50 12.4594 49.5104 11.4794 48.5312ZM36.5025 48.5312C35.5224 47.5521 35.0324 46.375 35.0324 45C35.0324 43.625 35.5224 42.4479 36.5025 41.4688C37.4825 40.4896 38.6607 40 40.037 40C41.4133 40 42.5914 40.4896 43.5715 41.4688C44.5516 42.4479 45.0416 43.625 45.0416 45C45.0416 46.375 44.5516 47.5521 43.5715 48.5312C42.5914 49.5104 41.4133 50 40.037 50C38.6607 50 37.4825 49.5104 36.5025 48.5312ZM12.8869 10L18.8925 22.5H36.4086L43.29 10H12.8869ZM10.5097 5H47.4188C48.378 5 49.1079 5.42708 49.6083 6.28125C50.1088 7.13542 50.1297 8 49.6709 8.875L40.7877 24.875C40.3289 25.7083 39.7138 26.3542 38.9422 26.8125C38.1707 27.2708 37.3262 27.5 36.4086 27.5H17.7664L15.0139 32.5H45.0416V37.5H15.0139C13.1371 37.5 11.7192 36.6771 10.7599 35.0312C9.80072 33.3854 9.75902 31.75 10.6348 30.125L14.0129 24L5.00462 5H0V0H8.13251L10.5097 5Z" fill="#00FF7F"/>
</svg>
