<svg width="50" height="50" viewBox="0 0 50 50" fill="none" xmlns="http://www.w3.org/2000/svg">
<path d="M0 50L25 0L50 50H0ZM7.84091 44.7368H42.1591L25 10.5263L7.84091 44.7368ZM26.6193 41.3487C27.0549 40.8443 27.2727 40.2193 27.2727 39.4737C27.2727 38.7281 27.0549 38.1031 26.6193 37.5987C26.1837 37.0943 25.6439 36.8421 25 36.8421C24.3561 36.8421 23.8163 37.0943 23.3807 37.5987C22.9451 38.1031 22.7273 38.7281 22.7273 39.4737C22.7273 40.2193 22.9451 40.8443 23.3807 41.3487C23.8163 41.8531 24.3561 42.1053 25 42.1053C25.6439 42.1053 26.1837 41.8531 26.6193 41.3487ZM22.7273 34.2105H27.2727V21.0526H22.7273V34.2105Z" fill="#A78BFA"/>
</svg>
