<svg width="35" height="35" viewBox="0 0 35 35" fill="none" xmlns="http://www.w3.org/2000/svg">
<path d="M17.5 29.1667L25.2778 21.3889L22.5556 18.6667L19.4444 21.7778V13.6111H15.5556V21.7778L12.4444 18.6667L9.72222 21.3889L17.5 29.1667ZM3.88889 9.72222V31.1111H31.1111V9.72222H3.88889ZM3.88889 35C2.81944 35 1.90394 34.6192 1.14236 33.8576C0.380787 33.0961 0 32.1806 0 31.1111V6.85417C0 6.40046 0.0729167 5.96296 0.21875 5.54167C0.364583 5.12037 0.583333 4.73148 0.875 4.375L3.30556 1.40972C3.66204 0.956019 4.10764 0.607639 4.64236 0.364583C5.17708 0.121528 5.73611 0 6.31944 0H28.6806C29.2639 0 29.8229 0.121528 30.3576 0.364583C30.8924 0.607639 31.338 0.956019 31.6944 1.40972L34.125 4.375C34.4167 4.73148 34.6354 5.12037 34.7812 5.54167C34.9271 5.96296 35 6.40046 35 6.85417V31.1111C35 32.1806 34.6192 33.0961 33.8576 33.8576C33.0961 34.6192 32.1806 35 31.1111 35H3.88889ZM4.66667 5.83333H30.3333L28.6806 3.88889H6.31944L4.66667 5.83333Z" fill="#39FF14"/>
</svg>
