<svg width="35" height="35" viewBox="0 0 35 35" fill="none" xmlns="http://www.w3.org/2000/svg">
<path d="M14.3182 35V31.5854H35V35H14.3182ZM15.9091 29.878C15.9091 27.5732 16.5852 25.56 17.9375 23.8384C19.2898 22.1169 21 21.0569 23.0682 20.6585V19.5915C23.0682 19.1077 23.2206 18.7022 23.5256 18.375C23.8305 18.0478 24.2083 17.8841 24.6591 17.8841C25.1098 17.8841 25.4877 18.0478 25.7926 18.375C26.0975 18.7022 26.25 19.1077 26.25 19.5915V20.6585C28.2917 21.0569 29.9953 22.1169 31.3608 23.8384C32.7263 25.56 33.4091 27.5732 33.4091 29.878H15.9091ZM20.0852 26.4207H29.1534C28.6496 25.6524 28.0066 25.0335 27.2244 24.564C26.4422 24.0945 25.5871 23.8598 24.6591 23.8598C23.7045 23.8598 22.8295 24.0945 22.0341 24.564C21.2386 25.0335 20.589 25.6524 20.0852 26.4207ZM0 19.6341V0.853659H9.54545V3.32927L20.6818 0L33.4091 4.26829V5.97561C33.4091 7.39837 32.9451 8.60772 32.017 9.60366C31.089 10.5996 29.9621 11.0976 28.6364 11.0976H25.4545V12.122C25.4545 12.8333 25.2623 13.4807 24.8778 14.064C24.4934 14.6474 23.9962 15.0671 23.3864 15.3232L12.6477 19.6341H0ZM3.18182 16.2195H6.36364V4.26829H3.18182V16.2195ZM9.54545 16.2195H12.0909L21.3182 12.5915C21.6098 12.4776 21.8419 12.2856 22.0142 12.0152C22.1866 11.7449 22.2727 11.439 22.2727 11.0976H19.4489L14.7955 12.7195L13.8409 9.47561L18.8125 7.68293H28.6364C28.875 7.68293 29.1733 7.59045 29.5312 7.40549C29.8892 7.22053 30.0682 7 30.0682 6.7439L20.6023 3.58537L9.54545 6.82927V16.2195Z" fill="#39FF14"/>
</svg>
