<svg width="35" height="35" viewBox="0 0 35 35" fill="none" xmlns="http://www.w3.org/2000/svg">
<path d="M7.83125 35C5.64375 35 3.79167 34.2271 2.275 32.6812C0.758333 31.1354 0 29.2687 0 27.0812C0 24.8937 0.758333 23.0417 2.275 21.525C3.79167 20.0083 5.64375 19.25 7.83125 19.25C8.47292 19.25 9.09271 19.3229 9.69063 19.4688C10.2885 19.6146 10.85 19.8188 11.375 20.0812C11.7833 19.2354 12.0021 18.3604 12.0312 17.4562C12.0604 16.5521 11.9 15.6771 11.55 14.8313C10.9958 15.1229 10.4125 15.3417 9.8 15.4875C9.1875 15.6333 8.54583 15.7063 7.875 15.7063C5.6875 15.7063 3.82812 14.9406 2.29688 13.4094C0.765625 11.8781 0 10.0188 0 7.83125C0 5.64375 0.765625 3.79167 2.29688 2.275C3.82812 0.758333 5.6875 0 7.875 0C10.0625 0 11.9219 0.758333 13.4531 2.275C14.9844 3.79167 15.75 5.64375 15.75 7.83125C15.75 8.50208 15.6698 9.14375 15.5094 9.75625C15.349 10.3687 15.1229 10.9521 14.8313 11.5062C15.6771 11.8562 16.5521 12.024 17.4562 12.0094C18.3604 11.9948 19.2354 11.7833 20.0812 11.375C19.8188 10.85 19.6146 10.2885 19.4688 9.69063C19.3229 9.09271 19.25 8.47292 19.25 7.83125C19.25 5.64375 20.0083 3.79167 21.525 2.275C23.0417 0.758333 24.8937 0 27.0812 0C29.2687 0 31.1354 0.758333 32.6812 2.275C34.2271 3.79167 35 5.64375 35 7.83125C35 10.0188 34.2271 11.8854 32.6812 13.4312C31.1354 14.9771 29.2687 15.75 27.0812 15.75C26.3813 15.75 25.7177 15.6625 25.0906 15.4875C24.4635 15.3125 23.8583 15.0646 23.275 14.7437C22.8958 15.6187 22.7208 16.5156 22.75 17.4344C22.7792 18.3531 22.9979 19.2646 23.4062 20.1687C23.9604 19.8771 24.5437 19.651 25.1562 19.4906C25.7687 19.3302 26.4104 19.25 27.0812 19.25C29.2687 19.25 31.1354 20.0083 32.6812 21.525C34.2271 23.0417 35 24.8937 35 27.0812C35 29.2687 34.2271 31.1354 32.6812 32.6812C31.1354 34.2271 29.2687 35 27.0812 35C24.8937 35 23.0417 34.2271 21.525 32.6812C20.0083 31.1354 19.25 29.2687 19.25 27.0812C19.25 26.4104 19.3302 25.7687 19.4906 25.1562C19.651 24.5437 19.8771 23.9604 20.1687 23.4062C19.2646 22.9979 18.3531 22.7719 17.4344 22.7281C16.5156 22.6844 15.6187 22.8521 14.7437 23.2312C15.0646 23.8146 15.3125 24.4271 15.4875 25.0688C15.6625 25.7104 15.75 26.3813 15.75 27.0812C15.75 29.2687 14.9771 31.1354 13.4312 32.6812C11.8854 34.2271 10.0188 35 7.83125 35ZM27.0812 12.25C28.3062 12.25 29.349 11.8198 30.2094 10.9594C31.0698 10.099 31.5 9.05625 31.5 7.83125C31.5 6.60625 31.0698 5.57812 30.2094 4.74687C29.349 3.91562 28.3062 3.5 27.0812 3.5C25.8562 3.5 24.8281 3.91562 23.9969 4.74687C23.1656 5.57812 22.75 6.60625 22.75 7.83125C22.75 8.06458 22.7719 8.30521 22.8156 8.55312C22.8594 8.80104 22.9104 9.04167 22.9688 9.275L25.5938 6.65C25.9438 6.3 26.3521 6.125 26.8188 6.125C27.2854 6.125 27.6938 6.3 28.0437 6.65C28.3937 7 28.5688 7.40833 28.5688 7.875C28.5688 8.34167 28.3937 8.75 28.0437 9.1L25.3312 11.8562C25.5938 12.0021 25.8708 12.1042 26.1625 12.1625C26.4542 12.2208 26.7604 12.25 27.0812 12.25ZM7.875 12.2063C8.16667 12.2063 8.44375 12.1771 8.70625 12.1187C8.96875 12.0604 9.21667 11.9875 9.45 11.9L6.65 9.1C6.3 8.75 6.125 8.34167 6.125 7.875C6.125 7.40833 6.3 7 6.65 6.65C7 6.3 7.40833 6.125 7.875 6.125C8.34167 6.125 8.75 6.3 9.1 6.65L11.9437 9.45C12.0312 9.21667 12.1042 8.96146 12.1625 8.68437C12.2208 8.40729 12.25 8.12292 12.25 7.83125C12.25 6.60625 11.8271 5.57083 10.9812 4.725C10.1354 3.87917 9.1 3.45625 7.875 3.45625C6.65 3.45625 5.61458 3.87917 4.76875 4.725C3.92292 5.57083 3.5 6.60625 3.5 7.83125C3.5 9.05625 3.92292 10.0917 4.76875 10.9375C5.61458 11.7833 6.65 12.2063 7.875 12.2063ZM27.0812 31.5C28.3062 31.5 29.349 31.0698 30.2094 30.2094C31.0698 29.349 31.5 28.3062 31.5 27.0812C31.5 25.8562 31.0698 24.8281 30.2094 23.9969C29.349 23.1656 28.3062 22.75 27.0812 22.75C26.7896 22.75 26.5125 22.7719 26.25 22.8156C25.9875 22.8594 25.7396 22.925 25.5063 23.0125L28.3937 25.9C28.7437 26.25 28.9187 26.6583 28.9187 27.125C28.9187 27.5917 28.7437 28 28.3937 28.35C28.0146 28.7 27.5917 28.875 27.125 28.875C26.6583 28.875 26.25 28.7 25.9 28.35L23.0562 25.5063C22.9688 25.7396 22.8958 25.9875 22.8375 26.25C22.7792 26.5125 22.75 26.7896 22.75 27.0812C22.75 28.3062 23.1656 29.349 23.9969 30.2094C24.8281 31.0698 25.8562 31.5 27.0812 31.5ZM7.83125 31.5C9.05625 31.5 10.099 31.0698 10.9594 30.2094C11.8198 29.349 12.25 28.3062 12.25 27.0812C12.25 26.7604 12.2208 26.4469 12.1625 26.1406C12.1042 25.8344 12.0021 25.55 11.8562 25.2875L8.79375 28.35C8.44375 28.7 8.02812 28.875 7.54688 28.875C7.06562 28.875 6.65 28.7 6.3 28.35C5.95 28 5.775 27.5917 5.775 27.125C5.775 26.6583 5.95 26.25 6.3 25.9L9.23125 22.9688C8.99792 22.9104 8.76458 22.8594 8.53125 22.8156C8.29792 22.7719 8.06458 22.75 7.83125 22.75C6.60625 22.75 5.57812 23.1656 4.74687 23.9969C3.91562 24.8281 3.5 25.8562 3.5 27.0812C3.5 28.3062 3.91562 29.349 4.74687 30.2094C5.57812 31.0698 6.60625 31.5 7.83125 31.5ZM17.5 19.25C17.9958 19.25 18.4115 19.0823 18.7469 18.7469C19.0823 18.4115 19.25 17.9958 19.25 17.5C19.25 17.0042 19.0823 16.5885 18.7469 16.2531C18.4115 15.9177 17.9958 15.75 17.5 15.75C17.0042 15.75 16.5885 15.9177 16.2531 16.2531C15.9177 16.5885 15.75 17.0042 15.75 17.5C15.75 17.9958 15.9177 18.4115 16.2531 18.7469C16.5885 19.0823 17.0042 19.25 17.5 19.25Z" fill="#39FF14"/>
</svg>
